<svg class="w-[69px] h-[30px] text-foreground h-6 md:h-7.5" viewBox="0 0 69 30" fill="none" xmlns="http://www.w3.org/2000/svg"><path d="M62.5631 5.88535H67.6075C69.2976 9.2968 67.6075 15.5208 62.225 15.9114V24.1145H58.4807V16.3281L51.1222 5.88535H55.7245L61.861 14.6093C65.0333 13.3853 65.0073 8.51555 62.5631 5.88535Z" fill="currentColor"></path><path d="M44.6844 21.1719C50.9249 21.1719 51.2109 15 51.2109 15H52.251C52.251 20.5729 48.4027 24.375 42.7862 24.375C36.8318 24.375 33.2695 20.1823 33.2695 15C33.2695 9.81771 36.8318 5.625 42.7862 5.625C51.7309 5.625 52.043 12.7604 52.043 12.7604H47.6746C47.6746 12.7604 46.0365 8.30729 40.7061 8.30729C37.4298 8.30729 36.0777 10.3646 36.0777 12.7344C36.0777 17.1615 39.874 21.1719 44.6844 21.1719Z" fill="currentColor"></path><path d="M28.0261 18.7499V5.88535H31.7704V17.2916C31.7704 21.927 28.7282 24.3749 23.4238 24.3749C18.1193 24.3749 15.0771 21.927 15.0771 17.2916V5.88535H18.8214V18.7499C18.8214 21.276 20.8756 22.8124 23.4238 22.8124C25.972 22.8124 28.0261 21.276 28.0261 18.7499Z" fill="currentColor"></path><path d="M3.74429 5.88535V21.1197H14.3011V24.1145H0V5.88535H3.74429Z" fill="currentColor"></path></svg>